<svg xmlns="http://www.w3.org/2000/svg" xmlns:xlink="http://www.w3.org/1999/xlink" zoomAndPan="magnify" preserveAspectRatio="xMidYMid meet" version="1.0" viewBox="68.49 157.41 237.74 59.42"><defs><g/></defs><g fill="#000000" fill-opacity="1"><g transform="translate(66.600776, 171.723006)"><g><path d="M 15.765625 -14.234375 L 15.765625 0 L 13.578125 0 L 13.578125 -7.953125 L 8.765625 -1.109375 L 8.71875 -1.109375 L 4.015625 -7.625 L 4.015625 0 L 1.890625 0 L 1.890625 -14.234375 L 1.90625 -14.234375 L 8.765625 -4.53125 L 15.71875 -14.234375 Z M 15.765625 -14.234375 "/></g></g></g><g fill="#000000" fill-opacity="1"><g transform="translate(87.130823, 171.723006)"><g><path d="M 1.03125 -6.859375 C 1.03125 -8.109375 1.34375 -9.269531 1.96875 -10.34375 C 2.601562 -11.425781 3.457031 -12.285156 4.53125 -12.921875 C 5.613281 -13.566406 6.789062 -13.890625 8.0625 -13.890625 C 9.320312 -13.890625 10.488281 -13.566406 11.5625 -12.921875 C 12.632812 -12.285156 13.488281 -11.425781 14.125 -10.34375 C 14.769531 -9.257812 15.09375 -8.097656 15.09375 -6.859375 C 15.09375 -5.578125 14.773438 -4.398438 14.140625 -3.328125 C 13.503906 -2.265625 12.644531 -1.414062 11.5625 -0.78125 C 10.488281 -0.15625 9.320312 0.15625 8.0625 0.15625 C 6.789062 0.15625 5.613281 -0.15625 4.53125 -0.78125 C 3.457031 -1.40625 2.601562 -2.25 1.96875 -3.3125 C 1.34375 -4.382812 1.03125 -5.566406 1.03125 -6.859375 Z M 3.296875 -6.859375 C 3.296875 -5.960938 3.507812 -5.140625 3.9375 -4.390625 C 4.375 -3.648438 4.957031 -3.0625 5.6875 -2.625 C 6.425781 -2.1875 7.234375 -1.96875 8.109375 -1.96875 C 8.984375 -1.96875 9.773438 -2.179688 10.484375 -2.609375 C 11.203125 -3.046875 11.769531 -3.640625 12.1875 -4.390625 C 12.613281 -5.140625 12.828125 -5.960938 12.828125 -6.859375 C 12.828125 -7.742188 12.613281 -8.5625 12.1875 -9.3125 C 11.757812 -10.070312 11.179688 -10.671875 10.453125 -11.109375 C 9.722656 -11.554688 8.925781 -11.78125 8.0625 -11.78125 C 7.175781 -11.78125 6.367188 -11.554688 5.640625 -11.109375 C 4.921875 -10.671875 4.347656 -10.070312 3.921875 -9.3125 C 3.503906 -8.5625 3.296875 -7.742188 3.296875 -6.859375 Z M 3.296875 -6.859375 "/></g></g></g><g fill="#000000" fill-opacity="1"><g transform="translate(106.151497, 171.723006)"><g><path d="M 1.890625 -13.734375 L 5.796875 -13.734375 C 7.515625 -13.734375 8.9375 -13.394531 10.0625 -12.71875 C 11.195312 -12.039062 12.019531 -11.164062 12.53125 -10.09375 C 13.050781 -9.03125 13.3125 -7.894531 13.3125 -6.6875 C 13.3125 -5.351562 13 -4.175781 12.375 -3.15625 C 11.75 -2.144531 10.914062 -1.363281 9.875 -0.8125 C 8.832031 -0.269531 7.691406 0 6.453125 0 L 1.890625 0 Z M 6.0625 -2.109375 C 7.039062 -2.109375 7.90625 -2.289062 8.65625 -2.65625 C 9.40625 -3.019531 9.988281 -3.554688 10.40625 -4.265625 C 10.832031 -4.984375 11.046875 -5.835938 11.046875 -6.828125 C 11.046875 -7.910156 10.8125 -8.8125 10.34375 -9.53125 C 9.882812 -10.257812 9.300781 -10.789062 8.59375 -11.125 C 7.882812 -11.46875 7.15625 -11.640625 6.40625 -11.640625 L 4.09375 -11.640625 L 4.09375 -2.109375 Z M 6.0625 -2.109375 "/></g></g></g><g fill="#000000" fill-opacity="1"><g transform="translate(123.398658, 171.723006)"><g><path d="M 8.953125 -3.234375 L 3.9375 -3.234375 L 2.625 0 L 0.453125 0 L 6.53125 -14.3125 L 6.65625 -14.3125 L 12.734375 0 L 10.21875 0 Z M 8.203125 -5.109375 L 6.5 -9.453125 L 4.71875 -5.109375 Z M 8.203125 -5.109375 "/></g></g></g><g fill="#000000" fill-opacity="1"><g transform="translate(139.476049, 171.723006)"><g/></g></g><g fill="#000000" fill-opacity="1"><g transform="translate(148.402772, 171.723006)"><g><path d="M 15.765625 -14.234375 L 15.765625 0 L 13.578125 0 L 13.578125 -7.953125 L 8.765625 -1.109375 L 8.71875 -1.109375 L 4.015625 -7.625 L 4.015625 0 L 1.890625 0 L 1.890625 -14.234375 L 1.90625 -14.234375 L 8.765625 -4.53125 L 15.71875 -14.234375 Z M 15.765625 -14.234375 "/></g></g></g><g fill="#000000" fill-opacity="1"><g transform="translate(168.93282, 171.723006)"><g><path d="M 4.09375 -13.734375 L 4.09375 0 L 1.890625 0 L 1.890625 -13.734375 Z M 4.09375 -13.734375 "/></g></g></g><g fill="#000000" fill-opacity="1"><g transform="translate(177.80294, 171.723006)"><g><path d="M 14.03125 -13.734375 L 14.03125 0.484375 L 13.96875 0.484375 L 4.0625 -9.109375 L 4.109375 0 L 1.890625 0 L 1.890625 -14.21875 L 2 -14.21875 L 11.875 -4.5 L 11.828125 -13.734375 Z M 14.03125 -13.734375 "/></g></g></g><g fill="#000000" fill-opacity="1"><g transform="translate(196.616076, 171.723006)"><g><path d="M 4.09375 -13.734375 L 4.09375 0 L 1.890625 0 L 1.890625 -13.734375 Z M 4.09375 -13.734375 "/></g></g></g><g fill="#000000" fill-opacity="1"><g transform="translate(205.486196, 171.723006)"><g><path d="M 15.765625 -14.234375 L 15.765625 0 L 13.578125 0 L 13.578125 -7.953125 L 8.765625 -1.109375 L 8.71875 -1.109375 L 4.015625 -7.625 L 4.015625 0 L 1.890625 0 L 1.890625 -14.234375 L 1.90625 -14.234375 L 8.765625 -4.53125 L 15.71875 -14.234375 Z M 15.765625 -14.234375 "/></g></g></g><g fill="#000000" fill-opacity="1"><g transform="translate(226.016244, 171.723006)"><g><path d="M 8.953125 -3.234375 L 3.9375 -3.234375 L 2.625 0 L 0.453125 0 L 6.53125 -14.3125 L 6.65625 -14.3125 L 12.734375 0 L 10.21875 0 Z M 8.203125 -5.109375 L 6.5 -9.453125 L 4.71875 -5.109375 Z M 8.203125 -5.109375 "/></g></g></g><g fill="#000000" fill-opacity="1"><g transform="translate(242.093635, 171.723006)"><g><path d="M 4.09375 -13.734375 L 4.09375 -2.109375 L 10.875 -2.109375 L 10.875 0 L 1.890625 0 L 1.890625 -13.734375 Z M 4.09375 -13.734375 "/></g></g></g><g fill="#000000" fill-opacity="1"><g transform="translate(256.869193, 171.723006)"><g><path d="M 4.09375 -13.734375 L 4.09375 0 L 1.890625 0 L 1.890625 -13.734375 Z M 4.09375 -13.734375 "/></g></g></g><g fill="#000000" fill-opacity="1"><g transform="translate(265.739313, 171.723006)"><g><path d="M 9.09375 -10.953125 C 7.914062 -11.566406 6.867188 -11.875 5.953125 -11.875 C 5.265625 -11.875 4.722656 -11.722656 4.328125 -11.421875 C 3.929688 -11.117188 3.734375 -10.703125 3.734375 -10.171875 C 3.734375 -9.660156 3.984375 -9.226562 4.484375 -8.875 C 4.984375 -8.53125 5.675781 -8.191406 6.5625 -7.859375 C 7.25 -7.617188 7.832031 -7.34375 8.3125 -7.03125 C 8.800781 -6.71875 9.203125 -6.296875 9.515625 -5.765625 C 9.828125 -5.242188 9.984375 -4.582031 9.984375 -3.78125 C 9.984375 -3.050781 9.800781 -2.390625 9.4375 -1.796875 C 9.070312 -1.203125 8.539062 -0.726562 7.84375 -0.375 C 7.15625 -0.0195312 6.335938 0.15625 5.390625 0.15625 C 4.566406 0.15625 3.75 0.0234375 2.9375 -0.234375 C 2.132812 -0.492188 1.421875 -0.847656 0.796875 -1.296875 L 1.78125 -3.015625 C 2.238281 -2.660156 2.785156 -2.367188 3.421875 -2.140625 C 4.054688 -1.910156 4.644531 -1.796875 5.1875 -1.796875 C 5.851562 -1.796875 6.4375 -1.953125 6.9375 -2.265625 C 7.445312 -2.585938 7.703125 -3.082031 7.703125 -3.75 C 7.703125 -4.28125 7.488281 -4.722656 7.0625 -5.078125 C 6.644531 -5.429688 6.054688 -5.753906 5.296875 -6.046875 C 4.523438 -6.328125 3.878906 -6.609375 3.359375 -6.890625 C 2.835938 -7.179688 2.390625 -7.582031 2.015625 -8.09375 C 1.648438 -8.601562 1.46875 -9.238281 1.46875 -10 C 1.46875 -11.125 1.847656 -12.023438 2.609375 -12.703125 C 3.367188 -13.390625 4.375 -13.757812 5.625 -13.8125 C 6.53125 -13.8125 7.328125 -13.707031 8.015625 -13.5 C 8.703125 -13.289062 9.335938 -13 9.921875 -12.625 Z M 9.09375 -10.953125 "/></g></g></g><g fill="#000000" fill-opacity="1"><g transform="translate(279.609231, 171.723006)"><g><path d="M 10.09375 -13.734375 L 10.09375 -11.625 L 6.546875 -11.625 L 6.546875 0 L 4.359375 0 L 4.359375 -11.625 L 0.90625 -11.625 L 0.90625 -13.734375 Z M 10.09375 -13.734375 "/></g></g></g><g fill="#000000" fill-opacity="1"><g transform="translate(293.498009, 171.723006)"><g><path d="M 8.953125 -3.234375 L 3.9375 -3.234375 L 2.625 0 L 0.453125 0 L 6.53125 -14.3125 L 6.65625 -14.3125 L 12.734375 0 L 10.21875 0 Z M 8.203125 -5.109375 L 6.5 -9.453125 L 4.71875 -5.109375 Z M 8.203125 -5.109375 "/></g></g></g><g fill="#000000" fill-opacity="1"><g transform="translate(114.25107, 203.899424)"><g><path d="M 8.648438 0.585938 C 8.648438 0.09375 8.53125 -0.257812 8.53125 -1.199219 C 8.53125 -2.84375 9.097656 -7.167969 8.578125 -8.0625 C 8.484375 -8.273438 8.273438 -8.390625 8.039062 -8.390625 C 7.875 -8.390625 7.710938 -8.34375 7.570312 -8.25 C 7.074219 -7.921875 6.628906 -7.003906 6.324219 -6.417969 C 4.652344 -3.03125 3.738281 1.457031 2.679688 5.3125 L 2.117188 7.003906 C 1.996094 7.261719 1.996094 7.378906 1.738281 7.449219 L 1.503906 6.300781 C 0.871094 2.492188 1.410156 -3.785156 1.902344 -7.214844 C 2.328125 -10.058594 2.632812 -11.730469 3.359375 -14.410156 C 3.503906 -14.878906 3.878906 -15.75 3.21875 -15.75 C 2.28125 -15.75 1.105469 -8.554688 1.035156 -8.085938 C 0.824219 -6.628906 0.632812 -5.195312 0.46875 -3.714844 L 0.234375 1.035156 C 0.234375 2.5625 0.375 8.367188 1.738281 8.367188 C 2.210938 8.367188 2.351562 8.132812 2.5625 7.757812 C 2.984375 6.722656 3.335938 5.710938 3.597656 4.628906 C 3.996094 3.242188 4.347656 1.691406 4.722656 0.210938 C 5.21875 -1.808594 6.300781 -5.523438 7.59375 -7.261719 C 7.757812 -7.472656 7.734375 -7.546875 8.015625 -7.617188 C 8.015625 -7.261719 8.0625 -7.050781 8.0625 -6.863281 L 7.710938 -2.164062 C 7.640625 -1.128906 7.640625 1.480469 8.648438 1.480469 C 9.894531 1.480469 11.257812 -3.832031 11.660156 -4.890625 C 12.292969 -6.441406 12.644531 -7.757812 13.421875 -9.472656 C 14.171875 -11.164062 14.597656 -12.128906 15.558594 -13.703125 C 15.914062 -14.316406 16.429688 -15.113281 17.042969 -15.417969 C 17.582031 -14.242188 16.453125 -8.414062 16.242188 -7.097656 C 15.726562 -4.019531 15.511719 -1.949219 15.136719 1.011719 L 14.433594 11.492188 C 14.457031 11.777344 14.457031 11.917969 14.480469 12.316406 C 14.503906 12.691406 14.714844 12.929688 14.902344 12.929688 C 15.066406 12.929688 15.230469 12.738281 15.230469 12.316406 C 15.230469 11.445312 15.207031 10.367188 15.277344 9.519531 C 15.65625 6.136719 15.820312 2.867188 16.335938 -0.609375 L 17.792969 -10.320312 C 17.910156 -11.117188 18.875 -16.265625 17.042969 -16.265625 C 15.394531 -16.265625 12.691406 -9.730469 12.199219 -8.484375 C 11.257812 -6.085938 10.601562 -3.878906 9.707031 -1.550781 C 9.519531 -0.964844 9.074219 0.328125 8.648438 0.585938 Z M 8.648438 0.585938 "/></g></g></g><g fill="#000000" fill-opacity="1"><g transform="translate(132.225629, 203.899424)"><g><path d="M 1.949219 0.09375 C 3.054688 0.09375 3.949219 -0.941406 4.511719 -1.527344 C 4.890625 -1.902344 6.300781 -3.480469 6.300781 -3.925781 C 6.300781 -4.136719 6.230469 -4.207031 6.136719 -4.207031 C 5.6875 -4.207031 4.441406 -2.539062 4.347656 -2.421875 C 3.996094 -1.972656 2.773438 -0.730469 2.019531 -0.730469 C 1.386719 -0.730469 1.128906 -2.117188 1.128906 -2.820312 C 1.128906 -5.21875 2.070312 -6.277344 0.988281 -6.277344 C 0.515625 -6.277344 0.28125 -5.21875 0.210938 -4.722656 C -0.046875 -3.527344 0 -1.902344 0.5625 -0.847656 C 0.824219 -0.398438 1.316406 0.09375 1.949219 0.09375 Z M 1.199219 -9.238281 C 1.199219 -8.71875 1.503906 -8.484375 1.832031 -8.484375 C 2.304688 -8.484375 2.796875 -9.003906 2.351562 -9.871094 C 2.210938 -10.128906 2.046875 -10.226562 1.878906 -10.226562 C 1.527344 -10.226562 1.199219 -9.777344 1.199219 -9.238281 Z M 1.199219 -9.238281 "/></g></g></g><g fill="#000000" fill-opacity="1"><g transform="translate(137.582757, 203.899424)"><g><path d="M 0.65625 -1.222656 C 1.574219 -1.222656 2.515625 -4.230469 3.289062 -4.746094 C 3.503906 -4.300781 3.171875 -3.359375 3.644531 -1.949219 C 3.855469 -1.316406 4.253906 -0.683594 4.984375 -0.683594 C 5.125 -0.683594 5.265625 -0.707031 5.429688 -0.753906 C 5.96875 -0.894531 6.722656 -1.832031 7.050781 -2.257812 C 7.191406 -2.445312 8.578125 -4.183594 7.664062 -4.183594 C 7.238281 -4.183594 5.992188 -1.386719 5.054688 -1.386719 C 4.183594 -1.386719 4.136719 -3.480469 4.136719 -4.066406 L 3.996094 -5.382812 C 3.878906 -5.640625 3.714844 -5.757812 3.550781 -5.757812 C 2.984375 -5.757812 2.28125 -4.558594 2.140625 -4.300781 L 1.011719 -2.585938 C 1.011719 -4.417969 2.539062 -6.628906 1.503906 -6.628906 C 0.609375 -6.628906 -0.847656 -1.222656 0.65625 -1.222656 Z M 0.65625 -1.222656 "/></g></g></g><g fill="#000000" fill-opacity="1"><g transform="translate(144.631608, 203.899424)"><g><path d="M 1.949219 0.09375 C 3.054688 0.09375 3.949219 -0.941406 4.511719 -1.527344 C 4.890625 -1.902344 6.300781 -3.480469 6.300781 -3.925781 C 6.300781 -4.136719 6.230469 -4.207031 6.136719 -4.207031 C 5.6875 -4.207031 4.441406 -2.539062 4.347656 -2.421875 C 3.996094 -1.972656 2.773438 -0.730469 2.019531 -0.730469 C 1.386719 -0.730469 1.128906 -2.117188 1.128906 -2.820312 C 1.128906 -5.21875 2.070312 -6.277344 0.988281 -6.277344 C 0.515625 -6.277344 0.28125 -5.21875 0.210938 -4.722656 C -0.046875 -3.527344 0 -1.902344 0.5625 -0.847656 C 0.824219 -0.398438 1.316406 0.09375 1.949219 0.09375 Z M 1.199219 -9.238281 C 1.199219 -8.71875 1.503906 -8.484375 1.832031 -8.484375 C 2.304688 -8.484375 2.796875 -9.003906 2.351562 -9.871094 C 2.210938 -10.128906 2.046875 -10.226562 1.878906 -10.226562 C 1.527344 -10.226562 1.199219 -9.777344 1.199219 -9.238281 Z M 1.199219 -9.238281 "/></g></g></g><g fill="#000000" fill-opacity="1"><g transform="translate(149.988735, 203.899424)"><g><path d="M 1.246094 -1.902344 L 1.292969 -1.902344 C 2.328125 -1.972656 3.21875 -5.3125 4.277344 -6.015625 C 4.277344 -5.3125 4.488281 -4.464844 5.21875 -4.464844 C 5.851562 -4.464844 6.699219 -5.6875 7.167969 -6.015625 C 7.167969 -4.652344 6.511719 -2.421875 7.191406 -0.707031 C 7.449219 -0.0234375 7.875 0.234375 8.320312 0.234375 C 9.097656 0.234375 9.988281 -0.515625 10.601562 -1.410156 C 10.765625 -1.644531 10.859375 -1.761719 11 -1.949219 C 11.140625 -2.1875 11.210938 -2.328125 11.351562 -2.539062 C 11.515625 -2.796875 12.035156 -3.550781 12.035156 -3.832031 C 12.035156 -3.996094 11.894531 -4.136719 11.800781 -4.136719 C 11.28125 -4.136719 11.164062 -3.691406 10.953125 -3.359375 C 10.34375 -2.351562 9.238281 -0.632812 8.554688 -0.632812 C 8.15625 -0.632812 7.898438 -1.152344 7.898438 -2.585938 C 7.898438 -3.902344 8.320312 -6.417969 7.898438 -6.910156 C 7.78125 -7.050781 7.640625 -7.097656 7.5 -7.097656 C 7.355469 -7.097656 7.214844 -7.050781 7.074219 -6.980469 C 6.816406 -6.839844 6.675781 -6.652344 6.464844 -6.417969 C 6.039062 -6.039062 5.5 -5.359375 5.148438 -5.3125 C 5.148438 -6.0625 4.984375 -6.980469 4.277344 -6.980469 C 3.714844 -6.980469 3.03125 -5.78125 2.773438 -5.335938 L 1.667969 -3.480469 C 1.621094 -3.433594 1.597656 -3.410156 1.550781 -3.359375 C 1.550781 -5.734375 2.679688 -6.792969 1.480469 -6.792969 C 0.632812 -6.792969 -0.398438 -1.902344 1.246094 -1.902344 Z M 1.246094 -1.902344 "/></g></g></g><g fill="#000000" fill-opacity="1"><g transform="translate(160.961433, 203.899424)"><g><path d="M 0 -2.375 C 0 -1.527344 0.0703125 -1.128906 0.941406 -1.128906 C 1.621094 -1.128906 2.351562 -3.335938 2.796875 -3.644531 C 2.796875 -2.632812 3.550781 -1.410156 4.722656 -1.410156 C 5.125 -1.410156 5.570312 -1.550781 6.039062 -1.878906 L 6.746094 -2.445312 C 7.945312 -3.597656 7.804688 -4.183594 7.449219 -4.183594 C 7.308594 -4.183594 7.144531 -4.113281 7.027344 -3.949219 C 6.699219 -3.597656 6.628906 -3.382812 6.183594 -2.984375 C 5.664062 -2.46875 5.171875 -2.1875 4.722656 -2.1875 C 4.230469 -2.1875 3.808594 -2.5625 3.621094 -3.410156 C 3.410156 -4.300781 3.808594 -5.359375 2.984375 -5.359375 C 2.679688 -5.359375 1.714844 -3.359375 1.246094 -2.632812 L 1.058594 -2.351562 C 0.941406 -2.210938 1.011719 -2.304688 0.941406 -2.234375 C 0.941406 -3.007812 1.269531 -3.902344 1.574219 -4.394531 C 2.257812 -5.570312 2.726562 -5.898438 3.078125 -5.898438 C 3.527344 -5.898438 3.808594 -5.359375 4.136719 -5.359375 C 4.746094 -5.359375 4.136719 -6.699219 3.03125 -6.699219 C 1.386719 -6.699219 0 -3.714844 0 -2.375 Z M 0 -2.375 "/></g></g></g><g fill="#000000" fill-opacity="1"><g transform="translate(167.775313, 203.899424)"><g><path d="M 0.046875 -1.808594 C 0.046875 -0.28125 0.09375 2.609375 1.363281 2.609375 C 1.949219 2.609375 2.398438 1.714844 2.65625 1.316406 C 3.171875 0.445312 3.808594 -1.199219 4.300781 -2.210938 C 4.417969 -2.445312 5.148438 -3.808594 5.148438 -3.949219 C 5.148438 -4.066406 5.054688 -4.207031 4.9375 -4.207031 C 4.820312 -4.207031 4.675781 -4.113281 4.535156 -3.832031 C 3.785156 -2.492188 3.101562 -0.847656 2.398438 0.515625 C 2.140625 1.058594 1.808594 1.691406 1.292969 1.972656 C 0.234375 -0.046875 1.550781 -7.355469 2.210938 -9.730469 C 2.28125 -9.964844 2.890625 -11.328125 2.117188 -11.328125 C 1.503906 -11.328125 1.292969 -10.152344 1.082031 -9.472656 C 0.492188 -7.308594 0.046875 -4.136719 0.046875 -1.808594 Z M 0.046875 -1.808594 "/></g></g></g><g fill="#000000" fill-opacity="1"><g transform="translate(171.910636, 203.899424)"><g><path d="M 1.949219 0.09375 C 3.054688 0.09375 3.949219 -0.941406 4.511719 -1.527344 C 4.890625 -1.902344 6.300781 -3.480469 6.300781 -3.925781 C 6.300781 -4.136719 6.230469 -4.207031 6.136719 -4.207031 C 5.6875 -4.207031 4.441406 -2.539062 4.347656 -2.421875 C 3.996094 -1.972656 2.773438 -0.730469 2.019531 -0.730469 C 1.386719 -0.730469 1.128906 -2.117188 1.128906 -2.820312 C 1.128906 -5.21875 2.070312 -6.277344 0.988281 -6.277344 C 0.515625 -6.277344 0.28125 -5.21875 0.210938 -4.722656 C -0.046875 -3.527344 0 -1.902344 0.5625 -0.847656 C 0.824219 -0.398438 1.316406 0.09375 1.949219 0.09375 Z M 1.199219 -9.238281 C 1.199219 -8.71875 1.503906 -8.484375 1.832031 -8.484375 C 2.304688 -8.484375 2.796875 -9.003906 2.351562 -9.871094 C 2.210938 -10.128906 2.046875 -10.226562 1.878906 -10.226562 C 1.527344 -10.226562 1.199219 -9.777344 1.199219 -9.238281 Z M 1.199219 -9.238281 "/></g></g></g><g fill="#000000" fill-opacity="1"><g transform="translate(177.267763, 203.899424)"><g><path d="M 0.28125 3.878906 C 0.28125 2.9375 0.964844 1.878906 1.527344 1.199219 C 1.808594 0.871094 2.375 0.164062 2.75 -0.046875 C 2.75 0.609375 2.773438 1.128906 2.609375 1.667969 C 2.398438 2.445312 1.878906 3.574219 1.246094 4.042969 C 1.082031 4.183594 0.800781 4.371094 0.585938 4.371094 C 0.421875 4.371094 0.28125 4.230469 0.28125 3.878906 Z M 0.0703125 -3.808594 C 0.0703125 -2.5625 1.714844 -2.164062 2.445312 -0.824219 C 2.09375 -0.257812 -0.46875 1.761719 -0.46875 3.878906 C -0.46875 4.722656 0 5.171875 0.65625 5.171875 C 1.363281 5.171875 2.257812 4.628906 2.9375 3.480469 C 4.511719 0.800781 3.550781 -0.5625 3.644531 -0.894531 C 3.691406 -1.082031 5.359375 -2.328125 5.617188 -2.46875 L 7.214844 -3.574219 C 7.757812 -3.878906 7.804688 -4.277344 7.425781 -4.277344 C 7.214844 -4.277344 6.910156 -4.183594 6.511719 -3.902344 L 4.324219 -2.375 C 3.972656 -2.070312 3.644531 -1.808594 3.265625 -1.550781 C 2.046875 -3.382812 0.28125 -3.3125 1.527344 -4.722656 C 1.878906 -5.125 1.808594 -5.007812 2.375 -5.148438 C 2.515625 -5.734375 2.304688 -5.96875 1.972656 -5.96875 C 1.292969 -5.96875 0.0703125 -5.007812 0.0703125 -3.808594 Z M 0.0703125 -3.808594 "/></g></g></g><g fill="#000000" fill-opacity="1"><g transform="translate(184.058149, 203.899424)"><g><path d="M -6.605469 -10.484375 C -6.605469 -10.152344 -6.371094 -10.082031 -6.109375 -10.082031 C -5.96875 -10.082031 -5.828125 -10.105469 -5.710938 -10.128906 C -5.5 -10.578125 -5.734375 -10.484375 -5.148438 -10.71875 C -4.867188 -10.835938 -4.652344 -11 -4.371094 -11.117188 C -2.914062 -11.683594 -1.574219 -12.082031 -0.0234375 -12.457031 C 0.210938 -12.527344 0.753906 -12.621094 0.894531 -12.667969 L 0.683594 -10.484375 C 0.65625 -10.175781 0.632812 -9.660156 0.585938 -9.355469 C 0.46875 -8.671875 0.445312 -5.5 0.445312 -4.605469 L 0.375 -3.503906 C 0.375 -1.785156 0.304688 1.011719 0.445312 2.703125 C 0.445312 3.265625 0.46875 4.113281 1.082031 4.113281 C 1.691406 4.113281 1.339844 2.492188 1.339844 1.949219 C 1.292969 0.917969 1.316406 -3.785156 1.386719 -4.488281 C 1.433594 -4.984375 1.386719 -6.039062 1.386719 -6.722656 C 1.386719 -7.050781 1.457031 -7.050781 1.457031 -7.355469 C 1.457031 -7.59375 1.433594 -7.875 1.457031 -8.085938 L 1.925781 -12.902344 C 2.492188 -13.023438 6.0625 -13.703125 7.355469 -13.703125 C 7.523438 -13.703125 7.640625 -13.703125 7.734375 -13.679688 C 8.015625 -13.609375 7.945312 -13.703125 8.015625 -13.46875 C 8.910156 -13.46875 8.625 -14.410156 7.523438 -14.410156 C 6.085938 -14.410156 4.699219 -14.171875 3.335938 -13.914062 C 2.984375 -13.867188 2.492188 -13.726562 2.117188 -13.726562 C 2.117188 -14.480469 2.585938 -13.867188 2.585938 -14.480469 C 2.585938 -14.621094 2.5625 -14.714844 2.5625 -14.785156 C 2.539062 -15.019531 2.585938 -14.832031 2.585938 -15.113281 C 2.585938 -15.488281 2.398438 -15.796875 2.140625 -15.796875 C 1.832031 -15.796875 1.457031 -15.371094 1.222656 -14.101562 C 1.058594 -13.304688 1.128906 -13.515625 0.140625 -13.257812 C -1.199219 -12.878906 -6.605469 -11.539062 -6.605469 -10.484375 Z M -6.605469 -10.484375 "/></g></g></g><g fill="#000000" fill-opacity="1"><g transform="translate(186.783708, 203.899424)"><g><path d="M 1.949219 0.09375 C 3.054688 0.09375 3.949219 -0.941406 4.511719 -1.527344 C 4.890625 -1.902344 6.300781 -3.480469 6.300781 -3.925781 C 6.300781 -4.136719 6.230469 -4.207031 6.136719 -4.207031 C 5.6875 -4.207031 4.441406 -2.539062 4.347656 -2.421875 C 3.996094 -1.972656 2.773438 -0.730469 2.019531 -0.730469 C 1.386719 -0.730469 1.128906 -2.117188 1.128906 -2.820312 C 1.128906 -5.21875 2.070312 -6.277344 0.988281 -6.277344 C 0.515625 -6.277344 0.28125 -5.21875 0.210938 -4.722656 C -0.046875 -3.527344 0 -1.902344 0.5625 -0.847656 C 0.824219 -0.398438 1.316406 0.09375 1.949219 0.09375 Z M 1.199219 -9.238281 C 1.199219 -8.71875 1.503906 -8.484375 1.832031 -8.484375 C 2.304688 -8.484375 2.796875 -9.003906 2.351562 -9.871094 C 2.210938 -10.128906 2.046875 -10.226562 1.878906 -10.226562 C 1.527344 -10.226562 1.199219 -9.777344 1.199219 -9.238281 Z M 1.199219 -9.238281 "/></g></g></g><g fill="#000000" fill-opacity="1"><g transform="translate(192.140836, 203.899424)"><g><path d="M 0 -3.21875 C 0 -1.738281 0.65625 -0.351562 2.28125 -0.351562 C 3.949219 -0.351562 5.429688 -1.972656 6.394531 -3.195312 C 6.511719 -3.335938 6.675781 -3.550781 6.746094 -3.714844 C 6.886719 -4.019531 6.769531 -4.277344 6.558594 -4.277344 C 6.441406 -4.277344 6.253906 -4.160156 6.085938 -3.925781 C 5.21875 -2.75 3.925781 -1.128906 2.304688 -1.128906 C 1.738281 -1.128906 1.480469 -1.433594 1.316406 -1.855469 C 0.753906 -3.007812 1.574219 -5.078125 2.398438 -5.640625 C 2.445312 -5.242188 2.632812 -5.03125 2.820312 -5.03125 C 2.984375 -5.03125 3.125 -5.21875 3.125 -5.640625 C 3.125 -6.253906 2.84375 -6.582031 2.375 -6.582031 C 1.011719 -6.582031 0 -4.324219 0 -3.21875 Z M 0 -3.21875 "/></g></g></g><g fill="#000000" fill-opacity="1"><g transform="translate(197.826901, 203.899424)"><g/></g></g><g fill="#000000" fill-opacity="1"><g transform="translate(203.9124, 203.899424)"><g><path d="M 9.777344 -17.792969 C 9.355469 -17.792969 9.449219 -17.628906 9.238281 -17.394531 C 9.097656 -17.253906 7.378906 -16.757812 7.097656 -16.6875 C 5.148438 -16.03125 2.257812 -15.019531 0.539062 -13.75 C -0.683594 -12.832031 -0.421875 -11.800781 1.292969 -11.683594 C 1.761719 -11.660156 2.117188 -11.636719 2.421875 -11.636719 C 3.148438 -11.636719 3.621094 -11.707031 4.652344 -11.824219 C 5.3125 -11.894531 5.007812 -12.316406 4.84375 -12.386719 C 4.796875 -12.410156 4.722656 -12.410156 4.605469 -12.410156 C 4.207031 -12.410156 3.382812 -12.339844 2.5625 -12.339844 C 2.019531 -12.339844 1.457031 -12.363281 1.011719 -12.480469 C 0.777344 -12.503906 0.777344 -12.550781 0.585938 -12.597656 C 1.152344 -13.679688 5.171875 -15.207031 6.605469 -15.628906 C 7.050781 -15.773438 8.460938 -16.335938 8.910156 -16.335938 C 8.414062 -15.230469 7.570312 -8.132812 7.449219 -6.699219 C 7.402344 -6.253906 7.308594 -6.253906 6.957031 -6.0625 C 6.015625 -5.640625 3.667969 -4.699219 3.667969 -3.621094 C 3.667969 -3.382812 4.066406 -3.21875 4.371094 -3.21875 C 4.652344 -3.21875 4.867188 -3.382812 4.582031 -3.832031 C 5.054688 -4.136719 6.675781 -5.171875 7.308594 -5.21875 C 7.238281 -5.03125 6.652344 1.644531 6.605469 2.5625 C 6.558594 3.574219 6.324219 7.167969 6.628906 7.898438 C 6.722656 8.085938 6.886719 8.273438 7.097656 8.25 C 7.59375 8.203125 7.402344 7.097656 7.378906 6.160156 C 7.378906 5.054688 7.617188 2.492188 7.664062 1.222656 L 7.945312 -1.925781 C 7.96875 -2.75 8.203125 -4.207031 8.226562 -5.03125 C 8.273438 -5.992188 8.34375 -5.734375 10.199219 -6.464844 C 11.847656 -7.097656 13.492188 -7.734375 15.277344 -7.734375 C 15.558594 -7.734375 15.558594 -7.78125 15.441406 -8.25 C 15.253906 -8.34375 14.972656 -8.367188 14.644531 -8.367188 C 13.65625 -8.367188 12.222656 -8.0625 11.683594 -7.898438 L 8.4375 -6.699219 C 8.4375 -7.617188 8.578125 -8.507812 8.71875 -9.308594 C 9.074219 -11.800781 9.449219 -14.292969 9.988281 -16.6875 C 10.976562 -16.898438 11.917969 -17.207031 12.976562 -17.394531 C 14.761719 -17.816406 20.074219 -19.015625 23.058594 -19.015625 C 23.644531 -19.015625 24.164062 -18.96875 24.515625 -18.851562 C 24.796875 -18.734375 25.007812 -18.6875 25.03125 -18.285156 C 25.292969 -18.285156 25.316406 -18.308594 25.503906 -18.332031 C 25.527344 -18.523438 25.574219 -18.523438 25.574219 -18.710938 C 25.574219 -19.507812 23.929688 -19.769531 23.058594 -19.769531 C 19.839844 -19.769531 13.75 -18.546875 10.460938 -17.652344 C 10.320312 -17.628906 10.226562 -17.605469 10.152344 -17.605469 C 9.917969 -17.605469 10.082031 -17.792969 9.777344 -17.792969 Z M 9.777344 -17.792969 "/></g></g></g><g fill="#000000" fill-opacity="1"><g transform="translate(220.030761, 203.899424)"><g><path d="M 0 -2.375 C 0 -1.527344 0.0703125 -1.128906 0.941406 -1.128906 C 1.621094 -1.128906 2.351562 -3.335938 2.796875 -3.644531 C 2.796875 -2.632812 3.550781 -1.410156 4.722656 -1.410156 C 5.125 -1.410156 5.570312 -1.550781 6.039062 -1.878906 L 6.746094 -2.445312 C 7.945312 -3.597656 7.804688 -4.183594 7.449219 -4.183594 C 7.308594 -4.183594 7.144531 -4.113281 7.027344 -3.949219 C 6.699219 -3.597656 6.628906 -3.382812 6.183594 -2.984375 C 5.664062 -2.46875 5.171875 -2.1875 4.722656 -2.1875 C 4.230469 -2.1875 3.808594 -2.5625 3.621094 -3.410156 C 3.410156 -4.300781 3.808594 -5.359375 2.984375 -5.359375 C 2.679688 -5.359375 1.714844 -3.359375 1.246094 -2.632812 L 1.058594 -2.351562 C 0.941406 -2.210938 1.011719 -2.304688 0.941406 -2.234375 C 0.941406 -3.007812 1.269531 -3.902344 1.574219 -4.394531 C 2.257812 -5.570312 2.726562 -5.898438 3.078125 -5.898438 C 3.527344 -5.898438 3.808594 -5.359375 4.136719 -5.359375 C 4.746094 -5.359375 4.136719 -6.699219 3.03125 -6.699219 C 1.386719 -6.699219 0 -3.714844 0 -2.375 Z M 0 -2.375 "/></g></g></g><g fill="#000000" fill-opacity="1"><g transform="translate(226.844642, 203.899424)"><g><path d="M 0.28125 3.878906 C 0.28125 2.9375 0.964844 1.878906 1.527344 1.199219 C 1.808594 0.871094 2.375 0.164062 2.75 -0.046875 C 2.75 0.609375 2.773438 1.128906 2.609375 1.667969 C 2.398438 2.445312 1.878906 3.574219 1.246094 4.042969 C 1.082031 4.183594 0.800781 4.371094 0.585938 4.371094 C 0.421875 4.371094 0.28125 4.230469 0.28125 3.878906 Z M 0.0703125 -3.808594 C 0.0703125 -2.5625 1.714844 -2.164062 2.445312 -0.824219 C 2.09375 -0.257812 -0.46875 1.761719 -0.46875 3.878906 C -0.46875 4.722656 0 5.171875 0.65625 5.171875 C 1.363281 5.171875 2.257812 4.628906 2.9375 3.480469 C 4.511719 0.800781 3.550781 -0.5625 3.644531 -0.894531 C 3.691406 -1.082031 5.359375 -2.328125 5.617188 -2.46875 L 7.214844 -3.574219 C 7.757812 -3.878906 7.804688 -4.277344 7.425781 -4.277344 C 7.214844 -4.277344 6.910156 -4.183594 6.511719 -3.902344 L 4.324219 -2.375 C 3.972656 -2.070312 3.644531 -1.808594 3.265625 -1.550781 C 2.046875 -3.382812 0.28125 -3.3125 1.527344 -4.722656 C 1.878906 -5.125 1.808594 -5.007812 2.375 -5.148438 C 2.515625 -5.734375 2.304688 -5.96875 1.972656 -5.96875 C 1.292969 -5.96875 0.0703125 -5.007812 0.0703125 -3.808594 Z M 0.0703125 -3.808594 "/></g></g></g><g fill="#000000" fill-opacity="1"><g transform="translate(233.635027, 203.899424)"><g><path d="M -0.140625 -1.949219 C -0.140625 -1.246094 -0.0703125 3.078125 0.777344 3.078125 C 1.222656 3.078125 1.363281 2.984375 1.527344 2.492188 C 1.808594 1.621094 1.996094 0.632812 2.375 -0.351562 C 2.65625 -1.058594 3.550781 -3.289062 3.996094 -3.621094 C 3.996094 -2.960938 4.019531 -1.902344 4.113281 -1.386719 C 4.277344 -0.421875 4.628906 0 5.125 0 C 6.230469 0 7.308594 -1.972656 7.78125 -2.820312 C 8.015625 -3.289062 8.320312 -3.550781 8.179688 -4.113281 C 8.085938 -4.136719 7.992188 -4.160156 7.921875 -4.160156 C 7.734375 -4.160156 7.59375 -3.996094 7.308594 -3.503906 C 7.121094 -3.125 6.933594 -2.796875 6.722656 -2.445312 C 6.324219 -1.878906 5.828125 -0.917969 5.125 -0.753906 C 4.820312 -1.339844 4.820312 -1.878906 4.820312 -2.773438 C 4.820312 -3.195312 4.820312 -4.628906 4.300781 -4.628906 C 3.597656 -4.628906 3.382812 -4.136719 3.03125 -3.503906 C 2.019531 -1.667969 1.808594 -0.964844 1.175781 0.917969 L 0.988281 1.363281 L 0.917969 -1.269531 C 0.917969 -3.621094 1.152344 -6.394531 1.503906 -8.554688 C 1.621094 -9.355469 1.972656 -10.460938 1.808594 -11.1875 C 1.644531 -11.210938 1.527344 -11.234375 1.433594 -11.234375 C 1.199219 -11.234375 1.128906 -11.070312 0.917969 -10.460938 C 0.539062 -8.957031 0.164062 -7.425781 0.09375 -5.851562 C 0.0703125 -5.5 0.0234375 -4.960938 0 -4.605469 Z M -0.140625 -1.949219 "/></g></g></g><g fill="#000000" fill-opacity="1"><g transform="translate(240.801352, 203.899424)"><g><path d="M 1.949219 0.09375 C 3.054688 0.09375 3.949219 -0.941406 4.511719 -1.527344 C 4.890625 -1.902344 6.300781 -3.480469 6.300781 -3.925781 C 6.300781 -4.136719 6.230469 -4.207031 6.136719 -4.207031 C 5.6875 -4.207031 4.441406 -2.539062 4.347656 -2.421875 C 3.996094 -1.972656 2.773438 -0.730469 2.019531 -0.730469 C 1.386719 -0.730469 1.128906 -2.117188 1.128906 -2.820312 C 1.128906 -5.21875 2.070312 -6.277344 0.988281 -6.277344 C 0.515625 -6.277344 0.28125 -5.21875 0.210938 -4.722656 C -0.046875 -3.527344 0 -1.902344 0.5625 -0.847656 C 0.824219 -0.398438 1.316406 0.09375 1.949219 0.09375 Z M 1.199219 -9.238281 C 1.199219 -8.71875 1.503906 -8.484375 1.832031 -8.484375 C 2.304688 -8.484375 2.796875 -9.003906 2.351562 -9.871094 C 2.210938 -10.128906 2.046875 -10.226562 1.878906 -10.226562 C 1.527344 -10.226562 1.199219 -9.777344 1.199219 -9.238281 Z M 1.199219 -9.238281 "/></g></g></g><g fill="#000000" fill-opacity="1"><g transform="translate(246.158479, 203.899424)"><g><path d="M 1.175781 -0.539062 C 0.65625 -1.621094 1.738281 -3.738281 1.902344 -4.417969 C 2.726562 -3.878906 2.140625 -0.800781 1.175781 -0.539062 Z M 0 -1.339844 C 0 -0.117188 0.515625 0.492188 1.128906 0.492188 C 1.832031 0.492188 2.703125 -0.328125 3.054688 -1.949219 C 3.574219 -4.371094 2.445312 -4.773438 2.328125 -5.21875 C 2.445312 -5.40625 2.65625 -5.546875 2.726562 -5.710938 C 2.796875 -5.898438 2.65625 -6.277344 2.351562 -6.277344 C 1.199219 -6.277344 0 -2.398438 0 -1.339844 Z M 0 -1.339844 "/></g></g></g><g fill="#000000" fill-opacity="1"><g transform="translate(250.293802, 203.899424)"><g><path d="M 0.65625 -1.222656 C 1.574219 -1.222656 2.515625 -4.230469 3.289062 -4.746094 C 3.503906 -4.300781 3.171875 -3.359375 3.644531 -1.949219 C 3.855469 -1.316406 4.253906 -0.683594 4.984375 -0.683594 C 5.125 -0.683594 5.265625 -0.707031 5.429688 -0.753906 C 5.96875 -0.894531 6.722656 -1.832031 7.050781 -2.257812 C 7.191406 -2.445312 8.578125 -4.183594 7.664062 -4.183594 C 7.238281 -4.183594 5.992188 -1.386719 5.054688 -1.386719 C 4.183594 -1.386719 4.136719 -3.480469 4.136719 -4.066406 L 3.996094 -5.382812 C 3.878906 -5.640625 3.714844 -5.757812 3.550781 -5.757812 C 2.984375 -5.757812 2.28125 -4.558594 2.140625 -4.300781 L 1.011719 -2.585938 C 1.011719 -4.417969 2.539062 -6.628906 1.503906 -6.628906 C 0.609375 -6.628906 -0.847656 -1.222656 0.65625 -1.222656 Z M 0.65625 -1.222656 "/></g></g></g><path stroke-linecap="round" transform="matrix(0.75, 0, 0, 0.75, 71.684575, 200.393336)" fill="none" stroke-linejoin="miter" d="M 0.498692 0.501593 L 49.738278 0.501593 " stroke="#000000" stroke-width="1" stroke-opacity="1" stroke-miterlimit="4"/><path stroke-linecap="round" transform="matrix(0.75, 0, 0, 0.75, 263.936061, 201.242696)" fill="none" stroke-linejoin="miter" d="M 0.501919 0.499322 L 49.741506 0.499322 " stroke="#000000" stroke-width="1" stroke-opacity="1" stroke-miterlimit="4"/></svg>